<svg xmlns="http://www.w3.org/2000/svg" viewBox="0 0 920 340" role="img" aria-label="Training WebUI showcase">
  <defs>
    <linearGradient id="bg" x1="0" y1="0" x2="1" y2="1">
      <stop offset="0" stop-color="#0f172a"/><stop offset="1" stop-color="#1e1b4b"/>
    </linearGradient>
    <linearGradient id="acc" x1="0" y1="1" x2="1" y2="0">
      <stop offset="0" stop-color="#e879f9"/><stop offset="1" stop-color="#22d3ee"/>
    </linearGradient>
  </defs>
  <rect width="920" height="340" rx="12" fill="url(#bg)"/>
  <rect x="12" y="12" width="896" height="28" rx="6" fill="#1e293b"/>
  <circle cx="28" cy="26" r="5" fill="#f87171"/><circle cx="46" cy="26" r="5" fill="#fbbf24"/><circle cx="64" cy="26" r="5" fill="#34d399"/>
  <rect x="280" y="18" width="360" height="16" rx="4" fill="#334155"/>
  <rect x="24" y="52" width="200" height="276" rx="8" fill="#1e293b" opacity="0.9"/>
  <rect x="236" y="52" width="668" height="276" rx="8" fill="#0f172a"/>
  <rect x="252" y="68" width="180" height="10" rx="2" fill="#475569"/>
  <rect x="252" y="88" width="620" height="120" rx="6" fill="#1e293b"/>
  <rect x="268" y="104" width="120" height="8" rx="2" fill="url(#acc)" opacity="0.9"/>
  <rect x="268" y="124" width="580" height="6" rx="2" fill="#334155"/>
  <rect x="268" y="138" width="520" height="6" rx="2" fill="#334155"/>
  <rect x="268" y="152" width="560" height="6" rx="2" fill="#334155"/>
  <rect x="252" y="224" width="200" height="36" rx="6" fill="#4c1d95"/>
  <rect x="464" y="224" width="200" height="36" rx="6" fill="#0e7490"/>
  <text x="460" y="312" text-anchor="middle" fill="#64748b" font-family="system-ui,sans-serif" font-size="12">WebUI · port 28000 · LoRA · Dreambooth · Anima</text>
</svg>
